<svg id="Layer_1" data-name="Layer 1" xmlns="http://www.w3.org/2000/svg" viewBox="0 0 34.88 34.87"><defs><style>.cls-1{fill:#3c3b3a;}</style></defs><path id="Icon_awesome-basketball-ball" data-name="Icon awesome-basketball-ball" class="cls-1" d="M15.16.45A17.23,17.23,0,0,0,6.57,4.23L12,9.67A15.67,15.67,0,0,0,15.16.45Zm2.51,14.88,11.1-11.1A17.36,17.36,0,0,0,18.54.29a19,19,0,0,1-4.13,11.79ZM4.18,6.62A17.37,17.37,0,0,0,.39,15.21a15.63,15.63,0,0,0,9.23-3.15ZM23.31,21a19.08,19.08,0,0,1,11.8-4.13A17.46,17.46,0,0,0,31.16,6.62l-11.1,11.1L23.31,21Zm-5.64-.87L6.57,31.21A17.44,17.44,0,0,0,16.8,35.16a19,19,0,0,1,4.13-11.79Zm13.49,8.71a17.23,17.23,0,0,0,3.78-8.59,15.73,15.73,0,0,0-9.22,3.15ZM12,14.47A19,19,0,0,1,.23,18.6a17.34,17.34,0,0,0,4,10.22l11.1-11.1ZM20.18,35a17.4,17.4,0,0,0,8.59-3.78l-5.44-5.45A15.79,15.79,0,0,0,20.18,35Z" transform="translate(-0.23 -0.29)"/></svg>