<svg id="Layer_1" data-name="Layer 1" xmlns="http://www.w3.org/2000/svg" viewBox="0 0 34.88 34.88"><defs><style>.cls-1{fill:#3c3b3a;}</style></defs><path id="Icon_awesome-bowling-ball" data-name="Icon awesome-bowling-ball" class="cls-1" d="M17.67.28A17.44,17.44,0,1,0,35.11,17.72h0A17.45,17.45,0,0,0,17.67.28Zm-9,12.94A2.25,2.25,0,1,1,10.92,11a2.25,2.25,0,0,1-2.25,2.25Zm4.5-6.75a2.25,2.25,0,1,1,2.25,2.25h0a2.24,2.24,0,0,1-2.25-2.24ZM16.54,16.6a2.25,2.25,0,1,1,2.25-2.25h0a2.24,2.24,0,0,1-2.24,2.25Z" transform="translate(-0.23 -0.28)"/></svg>