<svg id="Layer_1" data-name="Layer 1" xmlns="http://www.w3.org/2000/svg" viewBox="0 0 33.96 33.96"><defs><style>.cls-1{fill:#3c3b3a;}</style></defs><path id="Icon_map-gym" data-name="Icon map-gym" class="cls-1" d="M12.6,32a.72.72,0,0,1,0,1L11,34.51a.73.73,0,0,1-1,0L.88,24.66a.72.72,0,0,1,0-1l1.57-1.46a.72.72,0,0,1,1,0ZM24.22,13.56a.72.72,0,0,1,0,1l-9.84,9.19a.71.71,0,0,1-1,0L11,21.2a.72.72,0,0,1,0-1L20.85,11a.72.72,0,0,1,1,0h0ZM16,28.9a.72.72,0,0,1,0,1l-1.56,1.46a.72.72,0,0,1-1,0l-9.1-9.81a.72.72,0,0,1,0-1l1.56-1.46a.71.71,0,0,1,1,0Zm15.16-15a.72.72,0,0,1,0,1l-1.57,1.46a.71.71,0,0,1-1,0L19.4,6.54a.72.72,0,0,1,0-1L21,4.06a.72.72,0,0,1,1,0h0l9.1,9.81Zm3.35-3.12a.73.73,0,0,1,0,1l-1.56,1.46a.72.72,0,0,1-1,0h0l-9.1-9.81a.72.72,0,0,1,0-1L24.34.93a.71.71,0,0,1,1,0h0Z" transform="translate(-0.69 -0.74)"/></svg>