<svg id="Layer_1" data-name="Layer 1" xmlns="http://www.w3.org/2000/svg" viewBox="0 0 34.56 34.55"><defs><style>.cls-1{fill:#3c3b3a;}</style></defs><path id="Icon_map-climbing" data-name="Icon map-climbing" class="cls-1" d="M4.36,15.11A3.67,3.67,0,0,0,4,16.74l.13,8.73L1.1,32a2,2,0,0,0,3.45,1.89l3.33-7.1A2,2,0,0,0,8,26.23l0-.27,0-5.4,5.12,2.23L14,28.06a2,2,0,0,0,3.88-.13,2.44,2.44,0,0,0,0-.54l-1-6.37a2,2,0,0,0-1.1-1.41l-4.58-2,2.91-5.05,1.45,1.83a1.53,1.53,0,0,0,.55.39l5.51,1.6a1.55,1.55,0,0,0,.92-2.95l-.08,0L17.64,12,14,7.69a3.59,3.59,0,0,0-5.68.54Zm15.8,12.52-.35,2.61-9.47,2.3.09,1.61h23.1A1.47,1.47,0,0,0,35,32.69h0l0-31L31.82.94,30,9.09l-3,1.27-2.7,7.52,2.57,5.75-.72,2.21ZM13.73,6.19a2.94,2.94,0,1,0-3-2.94A2.94,2.94,0,0,0,13.73,6.19Zm-5.87.46a.84.84,0,0,0-.31-1.14h0L6.12,4.67A.86.86,0,0,0,5,5L.56,12.55a.83.83,0,0,0,.3,1.14h0l1.44.83a.85.85,0,0,0,1.15-.3Z" transform="translate(-0.45 -0.31)"/></svg>